<?xml version="1.0" encoding="UTF-8" standalone="no"?>
<!-- Created with Inkscape (http://www.inkscape.org/) -->

<svg
   xmlns:osb="http://www.openswatchbook.org/uri/2009/osb"
   xmlns:dc="http://purl.org/dc/elements/1.1/"
   xmlns:cc="http://creativecommons.org/ns#"
   xmlns:rdf="http://www.w3.org/1999/02/22-rdf-syntax-ns#"
   xmlns:svg="http://www.w3.org/2000/svg"
   xmlns="http://www.w3.org/2000/svg"
   xmlns:xlink="http://www.w3.org/1999/xlink"
   xmlns:sodipodi="http://sodipodi.sourceforge.net/DTD/sodipodi-0.dtd"
   xmlns:inkscape="http://www.inkscape.org/namespaces/inkscape"
   width="825"
   height="1060.13"
   id="svg2"
   version="1.1"
   inkscape:version="0.48.5 r10040"
   sodipodi:docname="character.svg"
   inkscape:export-filename="/Users/br/character.png"
   inkscape:export-xdpi="54.293564"
   inkscape:export-ydpi="54.293564">
  <defs
     id="defs4">
    <linearGradient
       id="linearGradient5382">
      <stop
         style="stop-color:#332928;stop-opacity:1;"
         offset="0"
         id="stop5384" />
      <stop
         style="stop-color:#250f0d;stop-opacity:1;"
         offset="1"
         id="stop5386" />
    </linearGradient>
    <linearGradient
       id="linearGradient5289">
      <stop
         style="stop-color:#eb743a;stop-opacity:1;"
         offset="0"
         id="stop5291" />
      <stop
         style="stop-color:#fba788;stop-opacity:0;"
         offset="1"
         id="stop5293" />
    </linearGradient>
    <linearGradient
       id="linearGradient5227">
      <stop
         style="stop-color:#fdab8c;stop-opacity:1;"
         offset="0"
         id="stop5229" />
      <stop
         style="stop-color:#ea8265;stop-opacity:1;"
         offset="1"
         id="stop5231" />
    </linearGradient>
    <linearGradient
       id="linearGradient5221"
       osb:paint="solid">
      <stop
         style="stop-color:#000000;stop-opacity:1;"
         offset="0"
         id="stop5223" />
    </linearGradient>
    <linearGradient
       inkscape:collect="always"
       xlink:href="#linearGradient5227"
       id="linearGradient4740"
       gradientUnits="userSpaceOnUse"
       x1="508.10172"
       y1="382.35242"
       x2="552.85675"
       y2="382.35242" />
    <linearGradient
       inkscape:collect="always"
       xlink:href="#linearGradient5227"
       id="linearGradient4746"
       gradientUnits="userSpaceOnUse"
       x1="225.44531"
       y1="500.63968"
       x2="283.31027"
       y2="551.21393" />
    <linearGradient
       inkscape:collect="always"
       xlink:href="#linearGradient5382"
       id="linearGradient4775"
       gradientUnits="userSpaceOnUse"
       gradientTransform="matrix(2.9727925,0,0,2.9727925,-641.40315,-786.88502)"
       x1="416.04007"
       y1="535.29901"
       x2="414.04254"
       y2="385.603" />
    <linearGradient
       inkscape:collect="always"
       xlink:href="#linearGradient5382"
       id="linearGradient4778"
       gradientUnits="userSpaceOnUse"
       gradientTransform="matrix(2.7162752,0,0,2.9727925,-551.00112,-813.83691)"
       x1="343.14597"
       y1="500.98083"
       x2="441.23331"
       y2="540.26764" />
    <linearGradient
       inkscape:collect="always"
       xlink:href="#linearGradient5227"
       id="linearGradient4922"
       gradientUnits="userSpaceOnUse"
       x1="508.10172"
       y1="382.35242"
       x2="552.85675"
       y2="382.35242" />
    <linearGradient
       inkscape:collect="always"
       xlink:href="#linearGradient5382"
       id="linearGradient4924"
       gradientUnits="userSpaceOnUse"
       gradientTransform="matrix(2.7162752,0,0,2.9727925,-551.00112,-813.83691)"
       x1="343.14597"
       y1="500.98083"
       x2="441.23331"
       y2="540.26764" />
    <linearGradient
       inkscape:collect="always"
       xlink:href="#linearGradient5382"
       id="linearGradient4926"
       gradientUnits="userSpaceOnUse"
       gradientTransform="matrix(2.9727925,0,0,2.9727925,-641.40315,-786.88502)"
       x1="416.04007"
       y1="535.29901"
       x2="414.04254"
       y2="385.603" />
    <linearGradient
       inkscape:collect="always"
       xlink:href="#linearGradient5227"
       id="linearGradient4928"
       gradientUnits="userSpaceOnUse"
       x1="225.44531"
       y1="500.63968"
       x2="283.31027"
       y2="551.21393" />
    <linearGradient
       inkscape:collect="always"
       xlink:href="#linearGradient5382"
       id="linearGradient4957"
       gradientUnits="userSpaceOnUse"
       gradientTransform="matrix(2.9727925,0,0,2.9727925,-637.36455,-784.86572)"
       x1="414.10715"
       y1="476.66705"
       x2="413.39822"
       y2="460.98697" />
    <linearGradient
       inkscape:collect="always"
       xlink:href="#linearGradient5382"
       id="linearGradient4960"
       gradientUnits="userSpaceOnUse"
       gradientTransform="matrix(1.9155878,0,0,2.9727925,-293.36419,-811.81761)"
       x1="340.32538"
       y1="515.79993"
       x2="353.08905"
       y2="542.20056" />
    <linearGradient
       inkscape:collect="always"
       xlink:href="#linearGradient5382"
       id="linearGradient4978"
       x1="256.89944"
       y1="634.15582"
       x2="84.412979"
       y2="534.55542"
       gradientUnits="userSpaceOnUse"
       gradientTransform="translate(2.019297,-28.270157)" />
    <linearGradient
       inkscape:collect="always"
       xlink:href="#linearGradient5382"
       id="linearGradient4982"
       gradientUnits="userSpaceOnUse"
       gradientTransform="matrix(-2.7162752,0,0,2.9727925,1484.1541,-807.98682)"
       x1="326.22229"
       y1="548.65961"
       x2="341.80658"
       y2="493.87747" />
    <linearGradient
       inkscape:collect="always"
       xlink:href="#linearGradient5227"
       id="linearGradient5884"
       gradientUnits="userSpaceOnUse"
       x1="225.44531"
       y1="500.63968"
       x2="283.31027"
       y2="551.21393" />
    <linearGradient
       inkscape:collect="always"
       xlink:href="#linearGradient5227"
       id="linearGradient5886"
       gradientUnits="userSpaceOnUse"
       x1="508.10172"
       y1="382.35242"
       x2="552.85675"
       y2="382.35242" />
  </defs>
  <sodipodi:namedview
     id="base"
     pagecolor="#ffffff"
     bordercolor="#666666"
     borderopacity="1.0"
     inkscape:pageopacity="0.0"
     inkscape:pageshadow="2"
     inkscape:zoom="0.5169173"
     inkscape:cx="367.16728"
     inkscape:cy="528.04613"
     inkscape:document-units="px"
     inkscape:current-layer="layer2"
     showgrid="false"
     inkscape:window-width="1279"
     inkscape:window-height="708"
     inkscape:window-x="1"
     inkscape:window-y="0"
     inkscape:window-maximized="0"
     fit-margin-top="0"
     fit-margin-left="0"
     fit-margin-right="0"
     fit-margin-bottom="0" />
  <metadata
     id="metadata7">
    <rdf:RDF>
      <cc:Work
         rdf:about="">
        <dc:format>image/svg+xml</dc:format>
        <dc:type
           rdf:resource="http://purl.org/dc/dcmitype/StillImage" />
        <dc:title />
      </cc:Work>
    </rdf:RDF>
  </metadata>
  <g
     inkscape:groupmode="layer"
     id="layer2"
     inkscape:label="Eye"
     style="display:inline"
     transform="translate(32.010363,7.5484766)">
    <g
       id="g5782"
       transform="translate(4.038594,3.9334539)">
      <path
         sodipodi:nodetypes="cccc"
         inkscape:connector-curvature="0"
         id="path5390"
         d="M 395.23733,978.38676 C 290.70304,955.01068 207.10241,990.25661 240.72466,1050.6674 l 155.9579,0 z"
         style="fill:#000000;fill-opacity:1;stroke:none" />
      <path
         sodipodi:nodetypes="ccccc"
         inkscape:connector-curvature="0"
         id="path5364"
         d="m 308.98927,809.98549 c 30.28565,-1.07981 53.44801,9.14176 83.73366,8.06195 5.75045,56.14978 -1.8387,116.46093 3.91175,172.61068 -36.36225,1.94197 -118.48516,3.74768 -136.03864,-4.065 0.077,-62.57048 31.05287,-116.396 48.39323,-176.60763 z"
         style="fill:#26244b;fill-opacity:1;stroke:none" />
    </g>
    <g
       id="g5778"
       transform="translate(-26.587916,2.019297)">
      <path
         style="fill:#000000;fill-opacity:1;stroke:none"
         d="M 639.37131,973.25381 C 536.36398,970.94704 461.33446,969.82046 490.6048,1050.2748 l 150.54038,-0.9096 z"
         id="path5398"
         inkscape:connector-curvature="0"
         sodipodi:nodetypes="cccc" />
      <path
         style="fill:#26244b;fill-opacity:1;stroke:none"
         d="m 536.32951,808.68332 c 30.28565,-1.07981 53.44804,3.39559 83.73369,2.31578 22.89912,59.34589 16.59672,122.44236 21.15028,174.52607 -36.36225,1.94197 -112.73898,5.66307 -130.29246,-2.14961 0.077,-62.57048 -7.25501,-97.24208 25.40849,-174.69224 z"
         id="path5400"
         inkscape:connector-curvature="0"
         sodipodi:nodetypes="ccccc" />
    </g>
    <rect
       style="fill:#26244b;fill-opacity:1;stroke:#000000;stroke-width:0;stroke-linecap:round;stroke-linejoin:round;stroke-miterlimit:4;stroke-opacity:1;stroke-dasharray:none"
       id="rect4986"
       width="279.64731"
       height="68.95414"
       x="324.56439"
       y="794.78583" />
    <rect
       style="fill:#ffffff;fill-opacity:1;stroke:#000000;stroke-width:5.35603952;stroke-linecap:round;stroke-linejoin:round;stroke-miterlimit:4;stroke-opacity:1;stroke-dasharray:none"
       id="rect4984"
       width="204.94701"
       height="298.9126"
       x="351.37988"
       y="538.0119" />
    <path
       style="fill:url(#linearGradient4960);fill-opacity:1;stroke:none"
       d="m 384.4128,481.03759 c 7.79973,18.68827 22.93243,351.69512 12.40038,361.53581 -13.17161,12.02483 -11.686,10.24311 -108.8957,13.28394 -17.63526,-31.08315 29.73349,-388.03335 96.49532,-374.81975 z"
       id="path5358"
       inkscape:connector-curvature="0"
       sodipodi:nodetypes="cccc" />
    <path
       sodipodi:nodetypes="cccc"
       inkscape:connector-curvature="0"
       id="path4980"
       d="m 496.26082,482.95299 c -11.05991,18.68827 -5.70235,353.61051 9.23194,363.4512 18.67715,12.02483 -2.58335,8.32772 135.25856,11.36855 34.58351,-92.37571 -77.98634,-370.79482 -144.4905,-374.81975 z"
       style="fill:url(#linearGradient4982);fill-opacity:1;stroke:none" />
    <path
       style="fill:none;stroke:url(#linearGradient4957);stroke-width:61.71399307;stroke-linecap:butt;stroke-linejoin:miter;stroke-miterlimit:4;stroke-opacity:1;stroke-dasharray:none"
       d="m 530.32272,547.29791 c 49.95179,39.35164 138.32582,99.63622 133.49125,122.92706 -4.83456,23.29088 -31.34333,49.21057 -76.21567,91.45021"
       id="path5402"
       inkscape:connector-curvature="0"
       sodipodi:nodetypes="czc" />
    <path
       style="fill:#fba788;fill-opacity:1;stroke:none"
       d="m 126.08402,514.49354 c -5.81635,-40.18327 -3.52762,-1.47697 -5.57863,-41.44252 -4.97069,-45.40236 22.95739,-65.71719 -3.00847,-66.797 C 97.41243,402.67503 86.90055,430.986 91.67754,447.29687 73.2314,446.36242 56.06007,355.39953 36.868961,374.70444 8.808838,382.73342 58.45058,441.73045 53.96424,445.6767 c -7.429169,6.21283 -61.391196,-59.90838 -74.218559,-35.88544 -20.444158,10.37902 50.849246,52.3272 47.794401,54.60033 -3.580241,2.66408 -48.282474,-17.84896 -54.613439,0.98122 -5.993215,17.82561 19.081137,10.11979 43.026953,27.86743 23.945816,17.74762 25.831994,26.32176 39.766344,37.09616 13.93435,10.77439 39.29809,11.18561 39.29809,11.18561 z"
       id="path5410"
       inkscape:connector-curvature="0"
       sodipodi:nodetypes="cccccccsszzcc" />
    <path
       sodipodi:nodetypes="cc"
       inkscape:connector-curvature="0"
       id="path5426"
       d="m 87.95103,462.9094 c -5.30544,15.09609 -6.97255,31.98828 -2.95,44.46717"
       style="fill:none;stroke:#e66e52;stroke-width:7.92779732;stroke-linecap:round;stroke-linejoin:round;stroke-miterlimit:4;stroke-opacity:1;stroke-dasharray:none" />
    <path
       sodipodi:nodetypes="csc"
       inkscape:connector-curvature="0"
       id="path5404"
       d="m 106.43317,524.90987 c 45.89823,52.23589 61.39258,63.65943 77.7565,87.94833 14.36295,21.31885 132.02614,-29.18958 194.55184,-70.85315"
       style="fill:none;stroke:url(#linearGradient4978);stroke-width:58.95344543;stroke-linecap:butt;stroke-linejoin:miter;stroke-miterlimit:4;stroke-opacity:1;stroke-dasharray:none" />
    <path
       style="fill:none;stroke:#000000;stroke-width:3.74623656px;stroke-linecap:butt;stroke-linejoin:miter;stroke-opacity:1"
       d="m 565.17413,739.28366 52.53403,57.31802"
       id="path5408"
       inkscape:connector-curvature="0"
       sodipodi:nodetypes="cc" />
    <path
       sodipodi:nodetypes="sscss"
       inkscape:connector-curvature="0"
       id="path5281"
       d="m 593.59078,96.22695 c 78.39895,21.8728 105.95407,81.60779 104.65095,179.86209 -1.12397,84.74783 -23.39025,151.91429 -111.27501,232.58798 0,0 39.72602,-38.52832 36.792,-214.75918 C 620.02022,69.368239 555.78593,85.679737 593.59078,96.22695 z"
       style="fill:#3a1f1a;fill-opacity:1;stroke:none"
       inkscape:transform-center-x="-10.179429"
       inkscape:transform-center-y="25.364299" />
    <g
       id="g4041"
       transform="matrix(0.79643641,0,0,0.79643641,128.71466,100.38762)">
      <path
         transform="matrix(2.9727925,0,0,2.9727925,-962.28251,-835.55925)"
         d="m 552.85678,382.35242 c 0,12.35877 -10.01876,22.37753 -22.37753,22.37753 -12.35877,0 -22.37754,-10.01876 -22.37754,-22.37753 0,-12.35878 10.01877,-22.37754 22.37754,-22.37754 12.35877,0 22.37753,10.01876 22.37753,22.37754 z"
         sodipodi:ry="22.377537"
         sodipodi:rx="22.377537"
         sodipodi:cy="382.35242"
         sodipodi:cx="530.47925"
         id="path5305"
         style="fill:url(#linearGradient5886);fill-opacity:1;stroke:none"
         sodipodi:type="arc" />
      <path
         sodipodi:type="arc"
         style="fill:none;stroke:#e66e52;stroke-width:4.46352625;stroke-miterlimit:4;stroke-opacity:1;stroke-dasharray:none"
         id="path5315"
         sodipodi:cx="530.47925"
         sodipodi:cy="382.35242"
         sodipodi:rx="22.377537"
         sodipodi:ry="22.377537"
         d="m 552.85678,382.35242 c 0,12.35877 -10.01876,22.37753 -22.37753,22.37753 -12.35877,0 -22.37754,-10.01876 -22.37754,-22.37753 0,-12.35878 10.01877,-22.37754 22.37754,-22.37754 12.35877,0 22.37753,10.01876 22.37753,22.37754 z"
         transform="matrix(1.6904114,0,0,1.5738313,-282.00597,-300.66305)" />
    </g>
    <path
       inkscape:transform-center-y="18.866115"
       inkscape:transform-center-x="9.699207"
       style="fill:#3a1f1a;fill-opacity:1;stroke:none"
       d="m 286.37003,165.44804 c -74.7004,16.26915 -100.95554,60.70038 -99.71394,133.78253 1.07096,63.03593 22.28679,112.99472 106.02547,173.00032 0,0 -37.85191,-28.6576 -35.0563,-159.73918 3.56217,-167.02128 64.76607,-154.8887 28.74477,-147.04367 z"
       id="path5406"
       inkscape:connector-curvature="0"
       sodipodi:nodetypes="sscss" />
    <path
       sodipodi:type="arc"
       style="fill:url(#linearGradient5884);fill-opacity:1;fill-rule:evenodd;stroke:none"
       id="path3755"
       sodipodi:cx="242"
       sodipodi:cy="501.36218"
       sodipodi:rx="71.5"
       sodipodi:ry="60"
       d="m 313.5,501.36218 c 0,33.13709 -32.01164,60 -71.5,60 -39.48836,0 -71.5,-26.86291 -71.5,-60 0,-33.13708 32.01164,-60 71.5,-60 39.48836,0 71.5,26.86292 71.5,60 z"
       inkscape:transform-center-x="44.983856"
       inkscape:transform-center-y="-56.055121"
       transform="matrix(2.622112,0,0,4.7611483,-193.84833,-2051.9859)" />
    <path
       style="fill:#3a1e17;fill-opacity:1;stroke:none"
       d="m 430.57986,-5.479386 c -5.77611,4.404475 105.04632,8.591078 206.0686,98.087797 0,0 56.00525,35.143659 40.15525,129.764369 0,0 -54.24585,19.25022 -167.11805,-45.89999 C 365.86624,93.459691 434.05098,-8.126201 430.57986,-5.479386 z"
       id="path5299"
       inkscape:connector-curvature="0"
       sodipodi:nodetypes="sscss" />
    <path
       sodipodi:nodetypes="sscss"
       inkscape:connector-curvature="0"
       id="path5303"
       d="m 195.99751,226.30095 c 4.42442,6.04266 16.83024,-103.10145 122.12912,-196.031964 0,0 42.50057,-52.627641 145.18073,-29.72525404 0,0 17.29279,55.05557504 -62.13376,161.55542804 -101.20372,135.69992 -207.8349,60.5705 -205.17609,64.20179 z"
       style="fill:#3a1e17;fill-opacity:1;stroke:none" />
    <path
       style="fill:#651300;fill-opacity:1;stroke:none"
       d="m 271.76215,281.29798 c 6.57501,-23.98719 22.56525,-35.07989 48.37524,-39.72475 22.26205,-4.00622 39.68035,-0.94643 59.95712,20.5632 0,0 -9.7075,-9.61741 -56.05627,0.25129 -59.0567,12.57453 -55.44664,30.47708 -52.27609,18.91026 z"
       id="path5279"
       inkscape:connector-curvature="0"
       sodipodi:nodetypes="sscss"
       inkscape:transform-center-x="-36.392459"
       inkscape:transform-center-y="-9.5769628" />
    <path
       style="fill:#c2421b;fill-opacity:1;stroke:none"
       d="m 501.90261,484.72637 c -30.85262,25.85397 -48.21684,33.07913 -80.04659,36.63543 -27.45431,3.06744 -42.83405,-12.74737 -60.328,-37.26854 0,0 3.41383,14.27384 67.20645,9.76578 74.46948,-5.26257 97.25999,-29.32122 73.16814,-9.13267 z"
       id="path5285"
       inkscape:connector-curvature="0"
       sodipodi:nodetypes="sscss" />
    <path
       style="fill:#651300;fill-opacity:1;stroke:none"
       d="m 467.7056,257.25399 c -3.62632,-19.31799 10.42336,-25.12563 39.51962,-22.94373 25.09657,1.88197 47.73127,8.75307 82.76813,32.3932 0,0 -16.44457,-10.72484 -67.95533,-13.31168 -65.63392,-3.29611 -52.5838,13.17746 -54.33242,3.86221 z"
       id="path5297"
       inkscape:connector-curvature="0"
       sodipodi:nodetypes="sscss"
       inkscape:transform-center-x="-11.021334"
       inkscape:transform-center-y="-19.767719" />
    <path
       sodipodi:nodetypes="cc"
       inkscape:connector-curvature="0"
       id="path5956"
       d="m 405.83734,326.80513 c -14.71936,39.51355 -24.6921,136.00965 49.71737,79.15843"
       style="fill:none;stroke:#e66e52;stroke-width:8.94128418px;stroke-linecap:butt;stroke-linejoin:miter;stroke-opacity:1" />
    <path
       inkscape:transform-center-y="13.142612"
       inkscape:transform-center-x="4.1503096"
       style="fill:#3a1f1a;fill-opacity:1;stroke:none"
       d="m 658.88178,192.53308 c -48.37321,7.25288 -66.57462,33.53296 -68.04341,78.37713 -1.26685,38.67967 10.78062,70.07666 62.58235,109.90886 0,0 -23.3681,-18.94522 -17.51512,-99.19571 7.45779,-102.25343 46.30228,-92.58764 22.97618,-89.09028 z"
       id="path4037"
       inkscape:connector-curvature="0"
       sodipodi:nodetypes="sscss" />
    <path
       sodipodi:nodetypes="cccc"
       inkscape:connector-curvature="0"
       id="path5760"
       d="m 283.25779,301.09966 c 19.63815,16.13912 21.37536,29.76937 62.69085,26.09768 21.25782,-1.41707 26.70449,-11.21209 30.63347,-41.05932 -45.24585,-0.18969 -44.71822,-3.42726 -93.32432,14.96164 z"
       style="fill:#ffffff;fill-opacity:1;stroke:none" />
    <path
       transform="matrix(2.2163876,0,0,2.120023,-337.91315,-350.613)"
       d="m 314.89501,307.09244 a 11.173694,11.173694 0 1 1 -22.34739,0 11.173694,11.173694 0 1 1 22.34739,0 z"
       sodipodi:ry="11.173694"
       sodipodi:rx="11.173694"
       sodipodi:cy="307.09244"
       sodipodi:cx="303.72131"
       id="path5768"
       style="fill:#007000;fill-opacity:1;stroke:#000000;stroke-opacity:1"
       sodipodi:type="arc" />
    <path
       sodipodi:type="arc"
       style="fill:#000000;fill-opacity:1;stroke:none"
       id="path5762"
       sodipodi:cx="303.72131"
       sodipodi:cy="307.09244"
       sodipodi:rx="11.173694"
       sodipodi:ry="11.173694"
       d="m 314.89501,307.09244 a 11.173694,11.173694 0 1 1 -22.34739,0 11.173694,11.173694 0 1 1 22.34739,0 z"
       transform="matrix(1.0771349,0,0,1.030303,8.252635,-16.1437)" />
    <path
       style="fill:#ffffff;fill-opacity:1;stroke:none"
       d="m 339.67519,277.9555 16.05349,4.83756 -18.46506,17.57457 z"
       id="path5770"
       inkscape:connector-curvature="0" />
    <path
       inkscape:transform-center-y="-5.4726322"
       inkscape:transform-center-x="-36.400266"
       sodipodi:nodetypes="sscss"
       inkscape:connector-curvature="0"
       id="path5754"
       d="m 279.08446,298.82442 c 6.23987,-12.91347 22.0707,-19.22342 47.80743,-22.36483 22.19885,-2.70951 39.65367,-1.53911 60.22205,9.35699 0,0 -9.83767,-4.85513 -56.03366,1.59755 -58.86204,8.22191 -55.00476,17.63727 -51.99582,11.41029 z"
       style="fill:#e66e52;fill-opacity:1;stroke:none" />
    <path
       style="fill:#ffffff;fill-opacity:1;stroke:none"
       d="m 566.96228,287.3649 c -18.28422,21.65687 -21.67019,37.51279 -62.97899,41.76681 -21.21873,2.70709 -31.60236,-18.94976 -31.1509,-44.08719 44.92051,-9.28151 44.46904,-8.12131 94.12989,2.32038 z"
       id="path5758"
       inkscape:connector-curvature="0"
       sodipodi:nodetypes="cccc" />
    <path
       sodipodi:type="arc"
       style="fill:#007000;fill-opacity:1;stroke:#000000;stroke-opacity:1"
       id="path5912"
       sodipodi:cx="303.72131"
       sodipodi:cy="307.09244"
       sodipodi:rx="11.173694"
       sodipodi:ry="11.173694"
       d="m 314.89501,307.09244 a 11.173694,11.173694 0 1 1 -22.34739,0 11.173694,11.173694 0 1 1 22.34739,0 z"
       transform="matrix(2.2163876,0,0,2.120023,-160.57152,-352.58992)" />
    <path
       transform="matrix(1.090909,0,0,1.0434782,181.45498,-21.90999)"
       d="m 314.89501,307.09244 a 11.173694,11.173694 0 1 1 -22.34739,0 11.173694,11.173694 0 1 1 22.34739,0 z"
       sodipodi:ry="11.173694"
       sodipodi:rx="11.173694"
       sodipodi:cy="307.09244"
       sodipodi:cx="303.72131"
       id="path5764"
       style="fill:#000000;fill-opacity:1;stroke:none"
       sodipodi:type="arc" />
    <path
       inkscape:connector-curvature="0"
       id="path5772"
       d="m 515.66875,275.50811 16.05349,4.83756 -18.46506,17.57457 z"
       style="fill:#ffffff;fill-opacity:1;stroke:none" />
    <path
       inkscape:transform-center-y="-11.723945"
       inkscape:transform-center-x="-10.997082"
       sodipodi:nodetypes="sscss"
       inkscape:connector-curvature="0"
       id="path5756"
       d="m 468.92064,284.8215 c -3.65821,-12.10373 10.37457,-15.39129 39.46059,-13.35873 25.08773,1.75314 47.72348,6.55342 82.78459,22.07503 0,0 -16.4553,-7.05445 -67.94571,-9.85893 -65.60799,-3.57343 -52.53547,6.97912 -54.29947,1.14263 z"
       style="fill:#e66e52;fill-opacity:1;stroke:none" />
  </g>
</svg>
